<svg width="19" height="17" viewBox="0 0 19 17" fill="none" xmlns="http://www.w3.org/2000/svg">
<path d="M9.27026 0.208902C9.14729 0.270391 9.053 0.360573 8.99562 0.467152C8.90543 0.622921 8.90133 0.67621 8.90133 1.58213V2.53724H6.94192C4.77755 2.53724 4.69147 2.54544 4.27335 2.79549C3.9905 2.96766 3.75685 3.23001 3.59698 3.56204L3.46991 3.82849L3.45761 6.46017L3.44531 9.09595H9.55721H15.665V6.54215C15.665 3.67682 15.6732 3.7629 15.3658 3.30789C15.169 3.01275 14.8862 2.78319 14.5582 2.64792C14.3369 2.55774 14.3 2.55774 12.275 2.54544L10.2131 2.53314V1.58213C10.2131 0.67621 10.209 0.622921 10.1188 0.467152C10.0204 0.290887 9.74577 0.118721 9.55721 0.118721C9.49982 0.118721 9.36864 0.159713 9.27026 0.208902ZM7.33544 6.14043C7.87654 6.41918 7.95852 7.16113 7.49531 7.56695C6.94192 8.05065 6.07699 7.65303 6.07289 6.91108C6.06879 6.24701 6.74106 5.83709 7.33544 6.14043ZM12.5824 6.14043C13.1235 6.41918 13.2055 7.16113 12.7423 7.56695C12.1889 8.05065 11.324 7.65303 11.3199 6.91108C11.3158 6.24701 11.988 5.83709 12.5824 6.14043Z" fill="#07213A"/>
<path d="M0.579846 4.55139C0.522458 4.57188 0.432275 4.63337 0.383085 4.68256C0.165828 4.88342 0.169927 4.85473 0.169927 6.90432C0.169927 8.58499 0.178126 8.83504 0.235514 8.95802C0.333895 9.16298 0.514259 9.27365 0.780707 9.29415C1.05125 9.31055 1.23572 9.21217 1.37509 8.97441C1.45707 8.83504 1.46117 8.77355 1.46117 6.90432C1.46117 4.76864 1.46937 4.82193 1.19063 4.62517C1.04305 4.52269 0.735615 4.4858 0.579846 4.55139Z" fill="#07213A"/>
<path d="M18.0135 4.57124C17.9439 4.60404 17.8537 4.66962 17.8168 4.71062C17.6446 4.89918 17.6364 5.02215 17.6323 6.92418C17.6323 8.74012 17.6323 8.75242 17.7266 8.93278C17.8619 9.20333 18.0463 9.31401 18.3333 9.29351C18.5997 9.27301 18.7801 9.16234 18.8785 8.95738C18.9359 8.8344 18.9441 8.58435 18.9441 6.89138V4.96886L18.8539 4.83359C18.8006 4.75981 18.7104 4.66143 18.6489 4.61633C18.5014 4.50566 18.1816 4.48516 18.0135 4.57124Z" fill="#07213A"/>
<path d="M3.45761 11.503L3.46991 12.6016L3.60108 12.8763C3.78145 13.2616 4.04789 13.5321 4.42912 13.7207L4.73656 13.8724L6.15078 13.8929L7.5691 13.9133L7.75356 14.0158C7.91343 14.106 8.02001 14.2413 8.54471 15.0201C9.21697 16.0285 9.30306 16.131 9.47522 16.1679C9.73347 16.2253 9.82365 16.131 10.5246 15.0898C11.0903 14.2454 11.201 14.106 11.3608 14.0158L11.5453 13.9133L12.9636 13.8929L14.3779 13.8724L14.6853 13.7207C15.0665 13.5321 15.333 13.2616 15.5133 12.8763L15.6445 12.6016L15.6568 11.503L15.6691 10.4085H9.55721H3.44531L3.45761 11.503Z" fill="#07213A"/>
</svg>
