<svg width="22" height="22" viewBox="0 0 22 22" fill="none" xmlns="http://www.w3.org/2000/svg">
<path d="M2.56643 1.8484C2.27129 1.90169 2.02943 2.03696 1.80398 2.28291C1.41456 2.70513 1.45145 1.8156 1.45145 11.1536C1.45145 20.594 1.40636 19.6225 1.85727 20.0734C2.30818 20.5243 1.33667 20.4792 10.7771 20.4792C17.5613 20.4792 19.0247 20.471 19.1599 20.4259C19.5371 20.2948 19.8814 19.9709 20.029 19.5938C20.0987 19.4216 20.1028 18.9584 20.1028 11.1945C20.1028 4.32021 20.0946 2.94288 20.0454 2.77891C19.9306 2.37719 19.5535 2.00007 19.1518 1.88529C18.9919 1.8402 18.4754 1.8279 16.5365 1.8279H14.1179L14.0974 4.71783C14.077 7.55857 14.077 7.61186 13.9868 7.82092C13.7162 8.48499 13.2448 8.9154 12.6012 9.08757C12.4455 9.13266 12.0028 9.14495 10.7648 9.14495H9.13333L8.82179 9.04247C8.20281 8.83342 7.7642 8.3948 7.52235 7.73073C7.49365 7.64875 7.47316 6.66085 7.45676 4.71783L7.43626 1.8279L5.09973 1.8238C3.81258 1.8197 2.67711 1.832 2.56643 1.8484ZM9.00216 13.8836C9.46126 14.105 9.50226 14.7567 9.06774 15.0478L8.91607 15.1503H6.78449H4.64882L4.49305 15.0519C4.14052 14.8346 4.07083 14.2771 4.36597 14.0148C4.59143 13.8139 4.55453 13.818 6.7722 13.818C8.62093 13.818 8.87508 13.8262 9.00216 13.8836ZM6.33768 16.5481C6.7517 16.749 6.83778 17.2982 6.50575 17.6262C6.32129 17.8024 6.07943 17.8475 5.30469 17.827C4.70211 17.8147 4.63652 17.8065 4.49305 17.7164C4.04623 17.4417 4.08723 16.7531 4.56683 16.5399C4.76359 16.4538 6.14912 16.462 6.33768 16.5481ZM9.10054 16.5768C9.31779 16.7244 9.42437 16.9129 9.42437 17.1589C9.42437 17.5401 9.15383 17.8024 8.7644 17.8024C8.16592 17.8024 7.88308 17.0728 8.32579 16.6588C8.53485 16.462 8.87508 16.4251 9.10054 16.5768Z" fill="#07213A"/>
<path d="M8.79676 1.83513C8.78036 1.84743 8.76807 3.08129 8.76807 4.57339V7.28296L8.86235 7.46332C8.96893 7.67648 9.1042 7.78306 9.32556 7.83225C9.53461 7.88144 12.0187 7.88144 12.2278 7.83225C12.4491 7.78306 12.5844 7.67648 12.6951 7.46332L12.7853 7.27886L12.7771 4.5529L12.7648 1.82693L10.7931 1.81464C9.71088 1.81054 8.80906 1.81874 8.79676 1.83513Z" fill="#07213A"/>
</svg>
