<svg width="20" height="20" viewBox="0 0 20 20" fill="none" xmlns="http://www.w3.org/2000/svg">
<path d="M2.07436 0.732744C1.98242 0.780554 1.89416 0.861462 1.84635 0.949726C1.79331 1.04375 1.76544 1.14987 1.76544 1.25783V9.73929V18.3854H1.41238C1.00784 18.3854 0.85706 18.4369 0.724665 18.6208C0.610658 18.7789 0.610658 19.0952 0.724665 19.2533C0.90487 19.5071 0.489296 19.4887 6.3772 19.4887H11.6951V11.9569C11.6951 4.63472 11.6914 4.4251 11.6252 4.27431C11.5737 4.16766 11.5112 4.09779 11.4082 4.0463C11.1361 3.90655 2.42741 0.659191 2.32444 0.659191C2.26928 0.659191 2.15895 0.692291 2.07436 0.732744ZM5.89911 6.33379C6.27423 6.5471 6.25952 7.10978 5.86969 7.29366C5.68581 7.37824 4.46483 7.37824 4.28095 7.29366C3.89112 7.10978 3.87641 6.5471 4.25152 6.33379C4.3876 6.25656 4.43908 6.24921 5.07532 6.24921C5.71155 6.24921 5.76304 6.25656 5.89911 6.33379ZM9.20899 6.33379C9.58411 6.5471 9.5694 7.10978 9.17957 7.29366C8.99568 7.37824 7.77471 7.37824 7.59082 7.29366C7.20099 7.10978 7.18628 6.5471 7.5614 6.33379C7.69748 6.25656 7.74896 6.24921 8.3852 6.24921C9.02143 6.24921 9.07291 6.25656 9.20899 6.33379ZM5.86969 8.51464C6.0646 8.60658 6.16022 8.76839 6.16022 9.00744C6.16022 9.24649 6.0646 9.4083 5.86969 9.50024C5.68581 9.58483 4.46483 9.58483 4.28095 9.50024C4.08603 9.4083 3.99041 9.24649 3.99041 9.00744C3.99041 8.77207 4.08235 8.61025 4.27359 8.51831C4.45012 8.43005 5.68581 8.43005 5.86969 8.51464ZM9.17957 8.51464C9.37448 8.60658 9.4701 8.76839 9.4701 9.00744C9.4701 9.24649 9.37448 9.4083 9.17957 9.50024C8.99568 9.58483 7.77471 9.58483 7.59082 9.50024C7.39591 9.4083 7.30029 9.24649 7.30029 9.00744C7.30029 8.77207 7.39223 8.61025 7.58347 8.51831C7.76 8.43005 8.99568 8.43005 9.17957 8.51464ZM5.86969 10.7212C6.0646 10.8132 6.16022 10.975 6.16022 11.214C6.16022 11.4531 6.0646 11.6149 5.86969 11.7068C5.68581 11.7914 4.46483 11.7914 4.28095 11.7068C4.08603 11.6149 3.99041 11.4531 3.99041 11.214C3.99041 10.9787 4.08235 10.8168 4.27359 10.7249C4.45012 10.6366 5.68581 10.6366 5.86969 10.7212ZM9.17957 10.7212C9.37448 10.8132 9.4701 10.975 9.4701 11.214C9.4701 11.4531 9.37448 11.6149 9.17957 11.7068C8.99568 11.7914 7.77471 11.7914 7.59082 11.7068C7.39591 11.6149 7.30029 11.4531 7.30029 11.214C7.30029 10.9787 7.39223 10.8168 7.58347 10.7249C7.76 10.6366 8.99568 10.6366 9.17957 10.7212ZM5.86969 12.9278C6.0646 13.0197 6.16022 13.1816 6.16022 13.4206C6.16022 13.6597 6.0646 13.8215 5.86969 13.9134C5.68581 13.998 4.46483 13.998 4.28095 13.9134C4.08603 13.8215 3.99041 13.6597 3.99041 13.4206C3.99041 13.1852 4.08235 13.0234 4.27359 12.9315C4.45012 12.8432 5.68581 12.8432 5.86969 12.9278ZM9.17957 12.9278C9.37448 13.0197 9.4701 13.1816 9.4701 13.4206C9.4701 13.6597 9.37448 13.8215 9.17957 13.9134C8.99568 13.998 7.77471 13.998 7.59082 13.9134C7.39591 13.8215 7.30029 13.6597 7.30029 13.4206C7.30029 13.1852 7.39223 13.0234 7.58347 12.9315C7.76 12.8432 8.99568 12.8432 9.17957 12.9278ZM6.17861 16.7305V18.3854H5.07532H3.96835L3.97938 16.9033C3.99409 14.9358 3.89479 15.0792 5.28862 15.0755H6.17861V16.7305ZM9.25312 15.1748C9.48481 15.3403 9.48849 15.3587 9.48849 16.9475V18.3854H8.3852H7.2819V16.7305V15.0719L8.21235 15.0829C9.10233 15.0939 9.14279 15.0976 9.25312 15.1748Z" fill="#07213A"/>
<path d="M12.7983 13.1303V19.4889H15.9096C19.3519 19.4889 19.179 19.5 19.3556 19.2536C19.4144 19.169 19.4365 19.0881 19.4365 18.9373C19.4365 18.7865 19.4144 18.7056 19.3556 18.621C19.2232 18.4371 19.0724 18.3856 18.6679 18.3856H18.3148V13.6599C18.3148 8.49647 18.3258 8.787 18.1015 8.59576C18.0169 8.52589 17.2961 8.26845 15.3911 7.6359L14.3331 7.28322C13.578 7.03155 12.7983 7.59352 12.7983 8.38938V13.1303ZM16.9026 10.7214C17.0975 10.8134 17.1931 10.9752 17.1931 11.2142C17.1931 11.365 17.1711 11.4459 17.1122 11.5305C16.9467 11.7585 16.9063 11.7659 15.5566 11.7659C14.2069 11.7659 14.1664 11.7585 14.0009 11.5305C13.8869 11.3724 13.8869 11.0561 14.0009 10.898C14.1627 10.67 14.1958 10.6626 15.5492 10.6626C16.6084 10.6626 16.7959 10.67 16.9026 10.7214ZM16.9026 12.928C17.0975 13.02 17.1931 13.1818 17.1931 13.4208C17.1931 13.5716 17.1711 13.6525 17.1122 13.7371C16.9467 13.9651 16.9063 13.9725 15.5566 13.9725C14.2069 13.9725 14.1664 13.9651 14.0009 13.7371C13.8869 13.579 13.8869 13.2627 14.0009 13.1046C14.1627 12.8765 14.1958 12.8692 15.5492 12.8692C16.6084 12.8692 16.7959 12.8765 16.9026 12.928ZM16.9761 15.1751C17.2078 15.3406 17.2115 15.3589 17.2115 16.9477V18.3856H16.6599H16.1082V17.2824V16.1791H15.5566H15.0049V17.2824V18.3856H14.4533H13.898L13.909 16.9036C13.92 15.4435 13.92 15.4251 14.0009 15.3111C14.1664 15.0794 14.1885 15.0758 15.5933 15.0868C16.8401 15.0942 16.8658 15.0942 16.9761 15.1751Z" fill="#07213A"/>
</svg>
