<svg width="141" height="35" viewBox="0 0 141 35" fill="none" xmlns="http://www.w3.org/2000/svg">
<g clip-path="url(#clip0_586_693)">
<path d="M37.6953 27.9437H42.2506V18.7846H53.9382V15.188H42.2506V8.60313H53.9382V5.00659H37.6953V27.9437Z" fill="#07213A"/>
<path d="M73.3567 11.1196C68.86 11.1249 65.2153 14.7109 65.21 19.1384V27.9437H69.3233V19.1384C69.3233 16.9443 71.1337 15.1697 73.3594 15.1697C75.5851 15.1697 77.3875 16.947 77.3901 19.1384V27.9437H81.5035V19.1384C81.4981 14.7109 77.8534 11.1223 73.3567 11.1196Z" fill="#07213A"/>
<path d="M136.39 12.0796V21.5166C136.39 23.7893 134.792 25.3753 132.489 25.3753C130.186 25.3753 128.554 23.8024 128.554 21.5166V12.0796H124.407V21.5166C124.361 23.3804 125.181 25.1603 126.63 26.3583C128.107 27.648 130.091 28.3007 132.527 28.3007C134.963 28.3007 136.89 27.6637 138.384 26.3504C139.848 25.1052 140.562 23.5246 140.562 21.5166V12.0796H136.39Z" fill="#07213A"/>
<path d="M92.9834 24.0328L87.4191 12.0373L87.4032 12.0059H82.3447L90.4968 28.8954L90.1108 29.8234C89.9457 30.3739 89.573 30.8431 89.0698 31.1341C88.4708 31.4487 87.7999 31.6007 87.121 31.5719H85.1215V34.9797H87.3047C89.4638 34.9797 91.1917 34.5104 92.443 33.5825C93.2417 32.9927 93.9632 32.0228 94.6234 30.6151L103.047 12.0845L103.082 12.0059H98.0365L92.9834 24.0328Z" fill="#07213A"/>
<path d="M119.037 14.0768C117.312 12.5039 115.158 11.7175 112.451 11.7175C109.743 11.7175 107.589 12.4856 105.867 14.0768C104.173 15.5841 103.234 17.7467 103.295 19.9932C103.295 22.4102 104.136 24.3578 105.867 25.9464C107.597 27.535 109.743 28.3057 112.451 28.3057C115.158 28.3057 117.312 27.5376 119.037 25.9464C120.762 24.3552 121.572 22.4337 121.572 19.9932C121.572 17.5527 120.746 15.6444 119.037 14.0768ZM115.954 23.6055C115.07 24.5938 113.787 25.1416 112.451 25.1049C109.634 25.1049 107.589 22.9606 107.589 20.0063C107.541 18.6668 108.039 17.3614 108.971 16.3836C110.861 14.491 113.952 14.4647 115.877 16.3259C115.901 16.3495 115.925 16.3731 115.946 16.3967C117.719 18.4859 117.719 21.5294 115.946 23.6186L115.954 23.6055Z" fill="#07213A"/>
<path d="M61.6396 12.0796H57.4917V27.9442H61.6396V12.0796Z" fill="#07213A"/>
<path d="M59.5659 9.02561C61.0348 9.02561 62.2256 7.85315 62.2256 6.40685C62.2256 4.96055 61.0348 3.78809 59.5659 3.78809C58.097 3.78809 56.9062 4.96055 56.9062 6.40685C56.9062 7.85315 58.097 9.02561 59.5659 9.02561Z" fill="#07213A"/>
<path d="M10.1295 32.4498C10.1295 32.8823 9.77004 33.2362 9.33076 33.2362H1.44226C1.00031 33.2362 0.643555 32.8849 0.643555 32.4498V8.65022C0.643555 8.62925 0.659529 8.61353 0.680827 8.61353H10.1215C10.1215 8.61353 10.1295 8.61615 10.1295 8.62139V32.4498Z" fill="#1AA5B9"/>
<path d="M10.1295 32.4498C10.1295 32.8823 9.77004 33.2362 9.33076 33.2362H1.44226C1.00031 33.2362 0.643555 32.8849 0.643555 32.4498V8.65022C0.643555 8.62925 0.659529 8.61353 0.680827 8.61353H10.1215C10.1215 8.61353 10.1295 8.61615 10.1295 8.62139V32.4498Z" fill="#1AA5B9"/>
<path d="M19.075 21.9849C21.7348 21.9849 23.8911 19.8618 23.8911 17.2428C23.8911 14.6238 21.7348 12.5007 19.075 12.5007C16.4151 12.5007 14.2588 14.6238 14.2588 17.2428C14.2588 19.8618 16.4151 21.9849 19.075 21.9849Z" fill="#1AA5B9"/>
<path d="M26.876 7.82745C26.876 8.25998 26.5166 8.61387 26.0773 8.61387H10.1379C10.1379 8.61387 10.1299 8.61125 10.1299 8.60601V0.0209711C10.1299 0.0209711 10.1405 0 10.1512 0H26.0773C26.5166 0 26.876 0.353887 26.876 0.786415V7.82745Z" fill="#1AA5B9"/>
<path d="M10.1374 -0.000488281V8.61338H0.643555" fill="#16748D"/>
</g>
<defs>
<clipPath id="clip0_586_693">
<rect width="139.919" height="34.9798" fill="white" transform="translate(0.643555)"/>
</clipPath>
</defs>
</svg>
