<svg width="19" height="16" viewBox="0 0 19 16" fill="none" xmlns="http://www.w3.org/2000/svg">
<path d="M14.575 6.22575H10.2896V7.78141C10.2592 8.29099 10.032 8.76991 9.65443 9.12014C9.27684 9.47038 8.77744 9.66545 8.25841 9.66545C7.73939 9.66545 7.23998 9.47038 6.86239 9.12014C6.4848 8.76991 6.25758 8.29099 6.22722 7.78141V4.40283L4.39461 5.48562C4.12714 5.64305 3.90568 5.86593 3.75182 6.13255C3.59795 6.39917 3.51693 6.70044 3.51664 7.00701V8.3228L1.25898 9.60433C1.15545 9.66183 1.06466 9.7391 0.991947 9.83161C0.919229 9.92412 0.86605 10.03 0.835537 10.143C0.805025 10.256 0.797794 10.3739 0.81427 10.4897C0.830746 10.6055 0.870596 10.7169 0.931478 10.8173L3.18914 14.6619C3.24761 14.7628 3.32588 14.8513 3.41939 14.9222C3.5129 14.9931 3.6198 15.045 3.73389 15.075C3.84797 15.105 3.96697 15.1124 4.08398 15.0967C4.20099 15.0811 4.31368 15.0428 4.41552 14.984L7.33514 13.3324H11.1885C11.6684 13.3306 12.1282 13.1423 12.4675 12.8085C12.8069 12.4748 12.9984 12.0226 13.0002 11.5506H13.4461C13.6852 11.5506 13.9145 11.4577 14.0842 11.2921C14.2539 11.1265 14.3502 10.9016 14.352 10.6666V8.89161H14.575C14.7598 8.89161 14.937 8.81941 15.0677 8.69088C15.1984 8.56236 15.2718 8.38805 15.2718 8.2063V6.8905C15.2663 6.71234 15.1905 6.54326 15.0604 6.41915C14.9304 6.29505 14.7562 6.22567 14.575 6.22575Z" fill="#07213A"/>
<path d="M18.7492 5.18334L16.4916 1.33875C16.4324 1.23762 16.3535 1.14901 16.2594 1.07802C16.1652 1.00702 16.0577 0.95506 15.9431 0.925118C15.8284 0.895176 15.7089 0.887849 15.5913 0.90356C15.4738 0.919271 15.3606 0.957709 15.2582 1.01666L12.3386 2.66825H9.4538C9.11555 2.6684 8.78437 2.7635 8.49918 2.94238L7.55152 3.51804C7.42205 3.59853 7.31526 3.70976 7.24098 3.8415C7.1667 3.97324 7.12732 4.12124 7.12646 4.27188V7.78066C7.12646 8.0751 7.24539 8.35749 7.45709 8.56569C7.66879 8.77389 7.95591 8.89086 8.25529 8.89086C8.55468 8.89086 8.8418 8.77389 9.0535 8.56569C9.26519 8.35749 9.38412 8.0751 9.38412 7.78066V5.33411H14.5753C14.9948 5.33411 15.3972 5.498 15.6938 5.78975C15.9904 6.08149 16.1571 6.47717 16.1571 6.88976V7.67786L18.4147 6.39633C18.6222 6.27869 18.7738 6.08503 18.8365 5.85772C18.8992 5.63042 18.8678 5.38795 18.7492 5.18334Z" fill="#07213A"/>
</svg>
