<svg width="14" height="16" viewBox="0 0 14 16" fill="none" xmlns="http://www.w3.org/2000/svg">
<path d="M4.75672 0.291539C4.31957 0.382173 3.87455 0.630432 3.53192 0.973265C2.54341 1.9663 2.53948 3.53466 3.53192 4.52376C4.5283 5.51679 6.09573 5.52073 7.08029 4.5277C8.07667 3.52678 8.07667 1.97418 7.08029 0.973265C6.46986 0.358529 5.60738 0.10633 4.75672 0.291539Z" fill="#07213A"/>
<path d="M3.25246 6.141C1.81998 6.39995 0.730942 7.36668 0.355878 8.70458C0.279057 8.98079 0.27002 9.18795 0.27002 11.1301C0.27002 13.2059 0.27002 13.2534 0.364915 13.3699C0.414623 13.4347 0.514037 13.5296 0.58182 13.5771C0.703829 13.6677 1.59038 13.8777 6.16797 13.8777C6.18766 13.6677 5.74809 13.4578 5.74809 13.0379C5.74809 11.3584 6.53814 10.1635 6.58785 10.0988C7.84748 9.25905 6.58785 9.67891 7.84748 8.83916C9.10711 8.24279 10.3516 8.88153 10.0985 8.24279C9.96747 7.90616 9.61951 7.40553 9.30771 7.10774C8.99591 6.80995 8.47173 6.47763 8.11926 6.35247C7.46402 6.11942 7.49566 6.11942 5.42151 6.11079C4.33246 6.10647 3.37899 6.11942 3.25246 6.141Z" fill="#07213A"/>
<path fill-rule="evenodd" clip-rule="evenodd" d="M9.63146 8.8396C7.71831 8.8396 6.16748 10.3906 6.16748 12.3036C6.16748 14.2166 7.71845 15.7676 9.63146 15.7676C11.5445 15.7676 13.0954 14.2166 13.0954 12.3036C13.0954 10.3906 11.5446 8.8396 9.63146 8.8396ZM9.63146 9.46039C8.84637 9.46039 8.1356 9.77867 7.62101 10.2931C7.10641 10.8077 6.78827 11.5185 6.78827 12.3036C6.78827 13.0887 7.10656 13.7994 7.62101 14.314C8.1356 14.8286 8.84637 15.1468 9.63146 15.1468C10.4166 15.1468 11.1273 14.8285 11.6419 14.314C12.1565 13.7994 12.4747 13.0887 12.4747 12.3036C12.4747 11.5185 12.1564 10.8077 11.6419 10.2931C11.1275 9.77853 10.4166 9.46039 9.63146 9.46039ZM11.3731 10.5619C10.9274 10.1162 10.3117 9.84052 9.63146 9.84052C8.95127 9.84052 8.3355 10.1162 7.88979 10.5619C7.44407 11.0076 7.1684 11.6234 7.1684 12.3036C7.1684 12.9838 7.44407 13.5995 7.88979 14.0453C8.3355 14.491 8.95127 14.7666 9.63146 14.7666C10.3117 14.7666 10.9274 14.491 11.3731 14.0453C11.8189 13.5995 12.0945 12.9838 12.0945 12.3036C12.0947 11.6234 11.819 11.0076 11.3731 10.5619Z" fill="#07213A"/>
<path d="M7.96841 12.701L7.96796 12.6733L7.96447 12.4618L7.96402 12.4341L7.99165 12.4337L8.34771 12.4278C8.34373 12.3862 8.34138 12.3438 8.34067 12.3006C8.33996 12.2574 8.34091 12.215 8.34352 12.1733L7.98746 12.1791L7.95983 12.1796L7.95937 12.152L7.95589 11.9404L7.95543 11.9127L7.98307 11.9123L8.38564 11.9057C8.39971 11.8516 8.41708 11.799 8.43776 11.7478C8.50569 11.5797 8.60186 11.4327 8.72625 11.3071C8.85063 11.179 8.99699 11.0801 9.1651 11.0105C9.33579 10.9383 9.52068 10.9006 9.71948 10.8974C9.92567 10.894 10.1167 10.9266 10.2923 10.9958C10.4683 11.0625 10.6173 11.1647 10.7389 11.3022L10.7558 11.3213L10.738 11.3397L10.5043 11.5816L10.4847 11.6019L10.4648 11.5819C10.364 11.4802 10.2533 11.4063 10.1327 11.3595L10.132 11.3593L10.132 11.3592C10.0137 11.3099 9.8846 11.2863 9.7445 11.2886C9.60168 11.2909 9.47074 11.3177 9.35138 11.3686C9.23166 11.4196 9.12689 11.4899 9.0369 11.5796C8.94968 11.6688 8.88298 11.7749 8.83684 11.8982L8.83683 11.8982L9.97708 11.8795L10.0047 11.879L10.0052 11.9066L10.0087 12.1182L10.0091 12.1458L9.98148 12.1463L8.77561 12.1662C8.77181 12.2076 8.77027 12.25 8.77098 12.2935C8.7717 12.3369 8.77463 12.3793 8.77976 12.4207L9.98567 12.4008L10.0133 12.4004L10.0138 12.428L10.0172 12.6396L10.0177 12.6672L9.99006 12.6677L8.84833 12.6865L7.96841 12.701ZM7.96841 12.701L7.99605 12.7005L8.39862 12.6939C8.41446 12.7474 8.43356 12.7995 8.45591 12.8499C8.52934 13.0157 8.63029 13.1606 8.75871 13.2845L8.75892 13.2847C8.88736 13.4061 9.03679 13.5001 9.20696 13.5666L9.20696 13.5666L9.20742 13.5668C9.38031 13.6308 9.56623 13.661 9.76494 13.6577C9.97119 13.6543 10.1611 13.6153 10.3344 13.5404C10.5079 13.4654 10.6534 13.3572 10.7704 13.2158L10.7867 13.1961L10.7683 13.1783L10.5267 12.9442L10.5062 12.9243L10.487 12.9455C10.3897 13.0529 10.2814 13.1329 10.1624 13.1861C10.0456 13.2369 9.91729 13.2636 9.77706 13.2659C9.63425 13.2682 9.5025 13.2458 9.38152 13.1989C9.26018 13.1518 9.15316 13.085 9.06027 12.9984C8.97008 12.9119 8.89995 12.8093 8.84985 12.6902L7.96841 12.701Z" fill="white" stroke="#07213A" stroke-width="0.0552809"/>
</svg>
