<svg width="19" height="16" viewBox="0 0 19 16" fill="none" xmlns="http://www.w3.org/2000/svg">
<path fill-rule="evenodd" clip-rule="evenodd" d="M9.59504 0.157471C4.76534 0.157471 0.850098 3.55068 0.850098 7.73642C0.850098 9.11222 1.2738 10.4039 2.01429 11.517C2.16509 11.7437 2.19096 12.0197 2.06369 12.257L1.31713 13.6492C0.85872 14.4008 1.48617 15.3154 2.47805 15.3154H9.59504C14.4247 15.3154 18.34 11.9221 18.34 7.73642C18.34 3.55068 14.4247 0.157471 9.59504 0.157471ZM6.09724 8.72168C6.7251 8.72168 7.23408 8.28051 7.23408 7.73642C7.23408 7.19225 6.7251 6.75115 6.09724 6.75115C5.46938 6.75115 4.96039 7.19225 4.96039 7.73642C4.96039 8.28051 5.46938 8.72168 6.09724 8.72168ZM13.0932 8.72168C13.7211 8.72168 14.23 8.28051 14.23 7.73642C14.23 7.19225 13.7211 6.75115 13.0932 6.75115C12.4653 6.75115 11.9563 7.19225 11.9563 7.73642C11.9563 8.28051 12.4653 8.72168 13.0932 8.72168ZM9.59521 8.72168C10.2231 8.72168 10.7321 8.28051 10.7321 7.73642C10.7321 7.19225 10.2231 6.75115 9.59521 6.75115C8.96733 6.75115 8.45837 7.19225 8.45837 7.73642C8.45837 8.28051 8.96733 8.72168 9.59521 8.72168Z" fill="#07213A"/>
</svg>
