<svg width="13" height="18" viewBox="0 0 13 18" fill="none" xmlns="http://www.w3.org/2000/svg">
<path d="M4.14912 0.623312C3.99538 0.690811 3.83788 0.882057 3.81163 1.03205C3.80038 1.09955 3.79288 1.60954 3.80038 2.17203C3.81163 3.13201 3.81538 3.19576 3.89038 3.29326C3.93163 3.34951 4.01413 3.432 4.07038 3.47325C4.17162 3.552 4.20912 3.552 6.49283 3.552C8.77653 3.552 8.81403 3.552 8.91528 3.47325C8.97152 3.432 9.05402 3.34951 9.09527 3.29326C9.17027 3.19576 9.17402 3.14326 9.17402 2.07078C9.17402 0.998305 9.17027 0.945806 9.09527 0.848308C9.05402 0.792059 8.97152 0.70956 8.91528 0.668311C8.81403 0.589563 8.76903 0.589563 6.53783 0.582063C4.70411 0.574563 4.23912 0.582063 4.14912 0.623312Z" fill="#07213A"/>
<path d="M0.766257 1.86973C0.582511 1.92973 0.267517 2.25222 0.211268 2.44347C0.14377 2.66846 0.14377 16.5732 0.211268 16.7982C0.271267 17.0044 0.582511 17.3157 0.788756 17.3757C0.878755 17.4019 1.16375 17.4207 1.45624 17.4207H1.96623V17.0532C1.96623 16.7832 1.98498 16.6519 2.03748 16.5394C2.12373 16.3482 2.17623 16.3032 2.45747 16.2019C2.68247 16.1232 2.68622 16.1157 2.77996 15.8869L2.87371 15.6582L2.77622 15.4632C2.67122 15.2532 2.64872 15.002 2.71997 14.8595C2.77996 14.7432 3.76619 13.7495 3.88619 13.6857C4.04369 13.6032 4.28743 13.622 4.50868 13.7307L4.70367 13.8282L4.94367 13.727C5.16867 13.6332 5.18741 13.6145 5.22866 13.4645C5.29991 13.2132 5.40116 13.0745 5.57741 12.9957C5.71615 12.932 5.8249 12.9207 6.46614 12.9207C7.10737 12.9207 7.21612 12.932 7.35487 12.9957C7.53112 13.0745 7.63236 13.2132 7.70361 13.4645C7.74486 13.6145 7.76361 13.6332 7.98861 13.727L8.2286 13.8282L8.4236 13.7307C8.64484 13.622 8.88859 13.6032 9.04608 13.6857C9.16608 13.7495 10.1523 14.7432 10.2123 14.8595C10.2836 15.002 10.2611 15.2494 10.1561 15.4594L10.0548 15.6544L10.1598 15.8944C10.2536 16.1232 10.2723 16.1419 10.4223 16.1832C10.846 16.3032 10.9623 16.4907 10.966 17.0532V17.4207H11.476C11.7685 17.4207 12.0535 17.4019 12.1435 17.3757C12.3498 17.3157 12.661 17.0044 12.721 16.7982C12.7885 16.5732 12.7885 2.66846 12.721 2.44347C12.661 2.23722 12.3498 1.92598 12.1435 1.86598C12.0385 1.83598 11.641 1.82098 10.8798 1.82098H9.77357L9.75857 2.57846L9.74732 3.3397L9.61982 3.57594C9.47733 3.83844 9.36108 3.95093 9.07608 4.10093L8.88484 4.20218H6.46614H4.04744L3.80369 4.06718C3.52245 3.91344 3.31995 3.67344 3.22621 3.38845C3.18121 3.2422 3.16621 3.04345 3.16621 2.51096V1.82098L2.03373 1.82473C1.32125 1.82848 0.848755 1.84348 0.766257 1.86973ZM4.79367 5.46215C4.90242 5.51465 4.98492 5.6834 4.95492 5.8034C4.93992 5.85215 4.62868 6.18964 4.26118 6.55338C3.4212 7.39336 3.4962 7.37461 2.95246 6.83462C2.62247 6.50463 2.56622 6.42963 2.56622 6.32839C2.56622 6.16714 2.70872 6.02089 2.86621 6.02089C2.95996 6.02089 3.03496 6.06964 3.22621 6.25339L3.4662 6.48588L4.00619 5.95339C4.55368 5.40965 4.60243 5.37591 4.79367 5.46215ZM10.2198 6.06964C10.3848 6.19714 10.3961 6.40338 10.2461 6.54588C10.1673 6.62088 10.1223 6.62088 8.2586 6.62088H6.34989L6.25989 6.52713C6.19989 6.47088 6.16614 6.39213 6.16614 6.32089C6.16614 6.24964 6.19989 6.17089 6.25989 6.11464L6.34989 6.02089H8.25485C9.69482 6.02464 10.1748 6.03589 10.2198 6.06964ZM4.79367 7.8621C4.90242 7.9146 4.98492 8.08335 4.95492 8.20335C4.93992 8.2521 4.62868 8.58959 4.26118 8.95333C3.4212 9.79331 3.4962 9.77456 2.95246 9.23457C2.62247 8.90458 2.56622 8.82958 2.56622 8.72834C2.56622 8.56709 2.70872 8.42084 2.86621 8.42084C2.95996 8.42084 3.03496 8.46959 3.22621 8.65334L3.4662 8.88583L4.00619 8.35334C4.55368 7.8096 4.60243 7.77586 4.79367 7.8621ZM10.2198 8.46959C10.3848 8.59709 10.3961 8.80333 10.2461 8.94583C10.1673 9.02083 10.1223 9.02083 8.2586 9.02083H6.34989L6.25989 8.92708C6.19989 8.87083 6.16614 8.79208 6.16614 8.72084C6.16614 8.64959 6.19989 8.57084 6.25989 8.51459L6.34989 8.42084H8.25485C9.69482 8.42459 10.1748 8.43584 10.2198 8.46959ZM4.79367 10.2621C4.90242 10.3146 4.98492 10.4833 4.95492 10.6033C4.93992 10.652 4.62868 10.9895 4.26118 11.3533C3.4212 12.1933 3.4962 12.1745 2.95246 11.6345C2.62247 11.3045 2.56622 11.2295 2.56622 11.1283C2.56622 10.967 2.70872 10.8208 2.86621 10.8208C2.95996 10.8208 3.03496 10.8695 3.22621 11.0533L3.4662 11.2858L4.00619 10.7533C4.55368 10.2096 4.60243 10.1758 4.79367 10.2621ZM10.2198 10.8695C10.3848 10.997 10.3961 11.2033 10.2461 11.3458C10.1673 11.4208 10.1223 11.4208 8.2586 11.4208H6.34989L6.25989 11.327C6.19989 11.2708 6.16614 11.192 6.16614 11.1208C6.16614 11.0495 6.19989 10.9708 6.25989 10.9145L6.34989 10.8208H8.25485C9.69482 10.8245 10.1748 10.8358 10.2198 10.8695Z" fill="#07213A"/>
<path d="M5.80271 13.6757C5.71646 13.957 5.56646 14.0882 5.18022 14.2419C4.79023 14.3957 4.62148 14.3994 4.37774 14.2719L4.19399 14.1745L3.75525 14.6132L3.31276 15.0557L3.39151 15.2094C3.519 15.4457 3.504 15.7419 3.34651 16.1019C3.18901 16.4732 3.07651 16.5932 2.80652 16.6794L2.59277 16.7469V17.0581V17.3694H3.34276H4.09274V17.2756C4.09274 17.0581 4.22024 16.5819 4.35899 16.2857C4.62898 15.7044 5.21022 15.2357 5.87396 15.0632C6.1702 14.9844 6.81519 14.9844 7.11143 15.0632C7.77517 15.2357 8.3414 15.6932 8.6189 16.2819C8.78014 16.6157 8.83264 16.7994 8.87389 17.1519L8.90014 17.3694H9.64638H10.3926V17.0581V16.7469L10.1864 16.6794C9.89762 16.5894 9.76262 16.4394 9.61638 16.0457C9.46638 15.6482 9.46263 15.4944 9.59013 15.2544L9.68763 15.0744L9.33888 14.7107C9.14764 14.5119 8.95264 14.3132 8.91139 14.2644L8.82889 14.1782L8.6639 14.2644C8.42015 14.3919 8.12766 14.3807 7.76017 14.2232C7.38892 14.0657 7.26893 13.9532 7.18268 13.6832L7.11518 13.4695H6.49269H5.87021L5.80271 13.6757Z" fill="#07213A"/>
<path d="M6.04659 15.6294C5.41286 15.7982 4.91787 16.3044 4.74912 16.9456C4.71912 17.0619 4.69287 17.2081 4.69287 17.2644V17.3694H6.49283H8.2928V17.2644C8.2928 17.2081 8.26655 17.0619 8.23655 16.9456C7.9853 15.9744 6.98782 15.3744 6.04659 15.6294Z" fill="#07213A"/>
</svg>
