<svg width="15" height="16" viewBox="0 0 15 16" fill="none" xmlns="http://www.w3.org/2000/svg">
<path d="M4.20343 0.912161C2.66989 1.07576 1.3284 2.0005 0.804105 3.25575C0.630422 3.67418 0.587316 3.91269 0.582131 4.43443C0.580822 4.78688 0.596401 4.96456 0.637961 5.14233C0.906747 6.22569 1.69907 7.13338 2.81445 7.62597C3.4532 7.90864 3.99515 8.02167 4.72587 8.02715C5.91777 8.03158 6.90964 7.67725 7.7405 6.95044C8.51924 6.26783 8.91857 5.43118 8.92211 4.47927C8.92475 3.76603 8.71277 3.12971 8.27649 2.54805C7.40395 1.37642 5.82143 0.740551 4.20343 0.912161ZM5.59087 2.48257C5.96409 2.55334 6.21711 2.63476 6.28827 2.71274C6.36266 2.79627 6.35935 2.81291 6.20237 3.10651L6.09118 3.31147L5.93861 3.29425C5.85095 3.2856 5.63673 3.2515 5.45823 3.21753C4.75721 3.08449 4.19151 3.24613 3.92044 3.65309L3.84532 3.7666L4.37469 3.76856C4.74493 3.76994 4.92026 3.78169 4.94616 3.80399C4.96882 3.8235 4.98472 3.91514 4.98432 4.02338C4.98328 4.30368 4.99304 4.29816 4.29804 4.29558L3.7167 4.29343L3.71629 4.40444L3.71588 4.51545L4.3102 4.51765C4.72915 4.51921 4.91748 4.53101 4.94338 4.55331C4.9887 4.59233 4.99394 4.93093 4.94824 4.99182C4.92539 5.02504 4.80843 5.0357 4.36346 5.04515L3.80805 5.05697L3.89842 5.20994C4.16626 5.67441 4.73726 5.83472 5.55302 5.67679C5.98204 5.59234 6.02425 5.5925 6.09223 5.65381C6.1699 5.72903 6.33413 6.10708 6.31767 6.1653C6.28153 6.27618 5.78733 6.42421 5.33252 6.4586C4.79974 6.50102 4.235 6.40179 3.83955 6.19495C3.47003 6.00208 3.13366 5.62617 2.98246 5.23707L2.91169 5.05364L2.63894 5.03875C2.48958 5.02987 2.34674 5.01269 2.3273 5.00151C2.29812 4.98753 2.28542 4.90977 2.28587 4.78766C2.2868 4.53789 2.31938 4.51026 2.61492 4.51136L2.83901 4.51219L2.83942 4.40118L2.83983 4.29017L2.59626 4.28926C2.31046 4.2882 2.2878 4.26869 2.28873 4.01892C2.28959 3.7858 2.30261 3.77752 2.64693 3.76215L2.94252 3.74937L3.02106 3.5887C3.31893 2.96259 3.88548 2.57338 4.64908 2.46798C4.91229 2.4301 5.34745 2.43726 5.59087 2.48257Z" fill="#16748D"/>
<path d="M11.3189 4.29706C10.6363 4.44439 10.044 4.78077 9.80553 5.149C9.75653 5.22653 9.655 5.45372 9.5828 5.65605C9.31695 6.40717 8.93167 6.95802 8.28659 7.50513C7.68714 8.01078 7.09487 8.32774 6.34062 8.53863C4.84835 8.96049 3.18624 8.7656 1.93213 8.02271C1.63076 7.84398 1.66655 7.82746 1.49942 8.22925C1.1324 9.11043 1.12857 10.1428 1.48903 11.0267C1.72397 11.6048 2.24393 12.3922 2.64196 12.7794C3.34094 13.4592 3.57316 13.8958 3.6353 14.6536C3.65071 14.8757 3.66681 14.9146 3.74447 14.9899L3.83184 15.0762L5.08869 15.0809L6.34554 15.0855L6.44006 14.9943C6.53132 14.9086 6.5346 14.8975 6.53566 14.6145L6.53674 14.3231L6.67632 14.343C6.75096 14.3572 7.1439 14.3669 7.55311 14.3685L8.29033 14.3712L8.28935 14.6348C8.28827 14.9262 8.31725 14.993 8.48261 15.0657C8.56042 15.1021 8.7715 15.1084 9.73931 15.112C10.9864 15.1167 10.9994 15.1139 11.1266 14.9701C11.1821 14.9037 11.1953 14.8371 11.2162 14.457C11.2546 13.7467 11.3755 13.5445 12.1411 12.8979C12.6852 12.4337 12.9428 12.1571 13.2139 11.7446C13.3804 11.4955 13.6291 11.0107 13.6293 10.9386C13.6294 10.9191 13.7204 10.9084 13.899 10.909C14.2335 10.9103 14.3798 10.8775 14.5296 10.7643C14.7576 10.5958 14.7675 10.5543 14.7709 9.6412C14.7741 8.77255 14.7646 8.7059 14.6027 8.55821C14.4668 8.43004 14.3565 8.39911 13.9831 8.38384L13.6291 8.36865L13.568 8.21579C13.4715 7.96288 13.1681 7.46775 12.9353 7.18658C12.8157 7.03627 12.5277 6.7549 12.2784 6.54028L11.8349 6.15564L11.7998 5.98067C11.7552 5.75015 11.7555 5.67522 11.8149 5.41457C11.8479 5.27037 11.92 5.1069 12.0278 4.92135C12.1193 4.76905 12.1914 4.60835 12.1915 4.56673C12.1919 4.46682 12.1144 4.34164 12.0237 4.2858C11.9265 4.22438 11.6212 4.23157 11.3189 4.29706ZM11.6833 7.61488C11.855 7.72653 11.9034 7.81274 11.9027 8.00146C11.9016 8.29286 11.7224 8.44483 11.3814 8.44357C11.1606 8.44275 11.0601 8.40074 10.9372 8.25875C10.7528 8.04714 10.8678 7.68956 11.1573 7.57962C11.2907 7.52461 11.5764 7.5451 11.6833 7.61488Z" fill="#16748D"/>
</svg>
