

<svg width="12" height="16" viewBox="0 0 12 16" fill="white" xmlns="http://www.w3.org/2000/svg">
<path d="M0.168457 2.46159V14.9228C0.168395 15.003 0.190304 15.0818 0.232027 15.1514C0.273751 15.2211 0.33385 15.2792 0.406409 15.3201C0.478967 15.361 0.561485 15.3832 0.645838 15.3846C0.730192 15.386 0.813474 15.3665 0.887486 15.3281L5.99842 12.6789L11.1093 15.3281C11.1834 15.3665 11.2666 15.386 11.351 15.3846C11.4353 15.3832 11.5179 15.361 11.5904 15.3201C11.663 15.2792 11.7231 15.2211 11.7648 15.1514C11.8065 15.0818 11.8284 15.003 11.8284 14.9228V2.46159C11.8284 1.97197 11.6236 1.50241 11.2592 1.15619C10.8947 0.809979 10.4005 0.615479 9.88506 0.615479H2.11178C1.59638 0.615479 1.10209 0.809979 0.737642 1.15619C0.373199 1.50241 0.168457 1.97197 0.168457 2.46159Z" fill="#07213A"/>
</svg>
