<svg width="19" height="20" viewBox="0 0 19 20" fill="none" xmlns="http://www.w3.org/2000/svg">
<path d="M18.316 16.0995L14.8409 12.629C15.5678 11.4199 15.9518 10.0372 15.9519 8.6282C15.9499 6.55491 15.1211 4.56722 13.6476 3.1019C12.1741 1.63657 10.1765 0.813476 8.09374 0.813477C7.51975 0.813631 6.94753 0.87692 6.3875 1.00219C6.32557 1.01603 6.26238 1.03113 6.19792 1.04748C4.49895 1.4697 2.99033 2.44471 1.91152 3.81775C0.832704 5.19079 0.245521 6.88319 0.243168 8.62631C0.241367 10.3709 0.826928 12.0658 1.90633 13.4403C2.98573 14.8148 4.4967 15.7895 6.19792 16.2089C6.25985 16.2265 6.32305 16.2416 6.3875 16.2542C6.94753 16.3795 7.51975 16.4428 8.09374 16.4429C9.46369 16.4446 10.8099 16.0872 11.9972 15.4069L15.5007 18.9019C15.874 19.2735 16.3804 19.4823 16.9083 19.4823C17.4363 19.4823 17.9426 19.2735 18.316 18.9019C18.6893 18.5303 18.899 18.0262 18.899 17.5007C18.899 16.9751 18.6893 16.4711 18.316 16.0995ZM14.0466 8.6282C14.047 9.26991 13.9419 9.90737 13.7357 10.5154C13.6524 10.7634 13.5523 11.0055 13.4361 11.24C12.8319 12.4578 11.8289 13.4342 10.5924 14.0085C9.81114 14.3686 8.96037 14.5547 8.09942 14.5539C7.52165 14.5542 6.94689 14.4709 6.39319 14.3067L6.20361 14.2463C5.02044 13.8514 3.99166 13.0968 3.26239 12.0888C2.53312 11.0808 2.14018 9.87038 2.13898 8.6282C2.14023 7.38659 2.5325 6.17662 3.2606 5.16851C3.98869 4.16039 5.01598 3.40488 6.19792 3.00824L6.3875 2.94785C6.94121 2.78356 7.51596 2.70029 8.09374 2.70063C9.67207 2.70213 11.1853 3.32693 12.3014 4.43788C13.4174 5.54884 14.0451 7.05518 14.0466 8.62631V8.6282Z" fill="#07213A"/>
<path d="M18.316 16.0995L14.8409 12.629C15.5678 11.4199 15.9518 10.0372 15.9519 8.6282C15.9499 6.55491 15.1211 4.56722 13.6476 3.1019C12.1741 1.63657 10.1765 0.813476 8.09374 0.813477C7.51975 0.813631 6.94753 0.87692 6.3875 1.00219C6.32557 1.01603 6.26238 1.03113 6.19792 1.04748C4.49895 1.4697 2.99033 2.44471 1.91152 3.81775C0.832704 5.19079 0.245521 6.88319 0.243168 8.62631C0.241367 10.3709 0.826928 12.0658 1.90633 13.4403C2.98573 14.8148 4.4967 15.7895 6.19792 16.2089C6.25985 16.2265 6.32305 16.2416 6.3875 16.2542C6.94753 16.3795 7.51975 16.4428 8.09374 16.4429C9.46369 16.4446 10.8099 16.0872 11.9972 15.4069L15.5007 18.9019C15.874 19.2735 16.3804 19.4823 16.9083 19.4823C17.4363 19.4823 17.9426 19.2735 18.316 18.9019C18.6893 18.5303 18.899 18.0262 18.899 17.5007C18.899 16.9751 18.6893 16.4711 18.316 16.0995ZM14.0466 8.6282C14.047 9.26991 13.9419 9.90737 13.7357 10.5154C13.6524 10.7634 13.5523 11.0055 13.4361 11.24C12.8319 12.4578 11.8289 13.4342 10.5924 14.0085C9.81114 14.3686 8.96037 14.5547 8.09942 14.5539C7.52165 14.5542 6.94689 14.4709 6.39319 14.3067L6.20361 14.2463C5.02044 13.8514 3.99166 13.0968 3.26239 12.0888C2.53312 11.0808 2.14018 9.87038 2.13898 8.6282C2.14023 7.38659 2.5325 6.17662 3.2606 5.16851C3.98869 4.16039 5.01598 3.40488 6.19792 3.00824L6.3875 2.94785C6.94121 2.78356 7.51596 2.70029 8.09374 2.70063C9.67207 2.70213 11.1853 3.32693 12.3014 4.43788C13.4174 5.54884 14.0451 7.05518 14.0466 8.62631V8.6282Z" fill="#07213A"/>
<path d="M8.09424 4.56302V4.62152C8.09677 4.83177 8.17091 5.03494 8.30454 5.19778C8.43816 5.36062 8.62336 5.47349 8.82981 5.51792C9.40966 5.65575 9.93975 5.95096 10.3611 6.37075C10.7825 6.79053 11.0786 7.31843 11.2166 7.89574C11.2613 8.10125 11.3747 8.2856 11.5383 8.41862C11.7018 8.55164 11.9059 8.62544 12.1172 8.62796H12.1759C12.3142 8.62772 12.4506 8.59651 12.5751 8.53664C12.6996 8.47677 12.809 8.38979 12.8951 8.28212C12.9812 8.17446 13.0419 8.04888 13.0726 7.9147C13.1034 7.78052 13.1034 7.64117 13.0726 7.50699C12.8586 6.57127 12.3835 5.71474 11.702 5.03599C11.0205 4.35724 10.1603 3.88388 9.22035 3.67039C9.08555 3.63981 8.94556 3.63982 8.81077 3.67041C8.67597 3.70101 8.54982 3.76141 8.44166 3.84714C8.3335 3.93288 8.24612 4.04174 8.18597 4.16566C8.12583 4.28959 8.09448 4.42539 8.09424 4.56302Z" fill="#07213A"/>
</svg>
