<svg width="15" height="16" viewBox="0 0 15 16" fill="none" xmlns="http://www.w3.org/2000/svg">
<path d="M0.736816 14.2068C0.736816 14.5071 0.848744 14.7669 1.0726 14.9863C1.29646 15.2058 1.57627 15.3097 1.91206 15.2981H13.5712C13.8821 15.2981 14.1557 15.1942 14.392 14.9863C14.6283 14.7785 14.7402 14.5186 14.7278 14.2068C14.7278 13.6872 14.5972 13.1617 14.336 12.6305C14.0749 12.0993 13.7329 11.6258 13.31 11.2101C12.8872 10.7943 12.4022 10.4075 11.855 10.0495C11.3078 9.69149 10.7481 9.4201 10.1761 9.23533C10.8601 8.84269 11.401 8.31725 11.799 7.659C12.197 7.00075 12.396 6.29631 12.396 5.54568V4.47169C12.396 3.27068 11.942 2.24866 11.0342 1.40564C10.1263 0.562623 9.02569 0.141113 7.7323 0.141113C6.43891 0.141113 5.33829 0.562623 4.43043 1.40564C3.52257 2.24866 3.06864 3.27068 3.06864 4.47169V5.54568C3.06864 6.30786 3.26763 7.0123 3.66559 7.659C4.06356 8.3057 4.60454 8.83114 5.28855 9.23533C4.70403 9.43165 4.14439 9.70303 3.60963 10.0495C3.07486 10.3959 2.58984 10.7828 2.15457 11.2101C1.71929 11.6374 1.37729 12.1108 1.12856 12.6305C0.879835 13.1502 0.749253 13.6756 0.736816 14.2068Z" fill="#07213A"/>
</svg>
